# xmcd
#
# Track frame offsets: 
#        150
#        25658
#        47451
#        65925
#        93935
#        114266
#        139273
#        160785
#
# Disc length: 2428 seconds
#
# Revision: 0
# Processed by: cddbd v1.5.2PL0 Copyright (c) Steve Scherf et al.
# Submitted via: ExactAudioCopyFreeDBPlugin 1.0
#
DISCID=61097a08
DTITLE=The B-52's - Live In The UK 2013 [Disc 1]
DYEAR=1900
DGENRE=Pop
TTITLE0=Planet Claire
TTITLE1=Mesopotamia
TTITLE2=Private Idaho
TTITLE3=Dance This Mess Around
TTITLE4=Girl From Ipanema Goes To Greenland
TTITLE5=Roam
TTITLE6=Love In The Year 3000
TTITLE7=Is That You Mo-Dean?
EXTD=
EXTT0=
EXTT1=
EXTT2=
EXTT3=
EXTT4=
EXTT5=
EXTT6=
EXTT7=
PLAYORDER=
